<?xml version="1.0" standalone="no"?>
<!DOCTYPE svg PUBLIC "-//W3C//DTD SVG 20010904//EN"
 "http://www.w3.org/TR/2001/REC-SVG-20010904/DTD/svg10.dtd">
<svg version="1.0" xmlns="http://www.w3.org/2000/svg"
 width="585.000000pt" height="498.000000pt" viewBox="0 0 585.000000 498.000000"
 preserveAspectRatio="xMidYMid meet">

<g transform="translate(0.000000,498.000000) scale(0.100000,-0.100000)"
fill="#0000FF" stroke="none">
<path d="M1100 4871 c0 -133 2 -131 -129 -131 -49 0 -96 -3 -105 -6 -13 -5
-16 -25 -16 -120 l0 -114 -115 0 -115 0 0 -2010 0 -2010 -125 0 -125 0 0 -112
c0 -62 -5 -120 -10 -128 -7 -12 -42 -16 -185 -18 l-175 -4 0 -104 0 -104 2915
0 2915 0 0 105 0 105 -212 2 -213 3 -2 105 c-4 161 3 150 -107 150 l-93 0 -7
348 c-4 191 -10 349 -12 351 -2 3 -54 7 -114 9 l-110 5 0 108 0 108 -112 3
-113 3 -3 189 c-1 104 1 193 6 198 5 5 54 11 109 15 l101 6 6 30 c3 16 6 58 6
93 0 80 7 84 139 84 l101 0 0 871 0 871 -97 -2 c-54 -1 -108 -2 -120 -1 l-23
1 0 245 0 245 -115 0 -115 0 0 108 c0 59 -4 112 -8 119 -5 8 -43 13 -107 15
l-100 3 -3 118 -3 117 -228 0 -228 0 -7 112 c-4 62 -8 113 -9 114 -1 1 -662 5
-1469 8 l-1468 7 0 -110z m2920 -403 c0 -56 5 -58 135 -55 l120 2 3 -218 2
-217 105 2 105 3 0 -66 c0 -36 3 -87 6 -113 l7 -46 108 0 107 0 7 -62 c3 -35
5 -369 3 -743 l-3 -680 -222 0 -223 0 -2 -218 -3 -219 -162 1 c-89 1 -185 -1
-213 -5 l-50 -7 2 -211 3 -211 213 -3 212 -2 0 -225 0 -225 219 0 220 0 6 -52
c3 -29 5 -131 3 -226 l-3 -172 -502 -3 -502 -2 -5 27 c-3 14 -2 65 1 112 l6
86 -117 0 -116 0 0 120 0 120 -120 0 -120 0 0 115 0 115 -115 0 -115 0 0 110
0 110 -100 0 -99 0 -7 36 c-4 20 -4 72 -1 115 l6 79 -304 0 -305 0 -2 -570 -3
-571 -540 -1 -540 -1 -3 103 c-2 76 1 106 10 112 7 4 95 8 196 8 l182 0 0 120
0 120 -195 0 -195 0 0 1035 0 1035 110 0 110 0 0 135 0 135 -110 0 -110 0 0
600 0 600 1450 0 1450 0 0 -32z"/>
<path d="M1907 3784 c-9 -9 -8 -464 1 -484 6 -13 43 -15 245 -15 l237 0 5 30
c3 17 5 129 3 250 l-3 220 -241 3 c-132 1 -243 -1 -247 -4z"/>
<path d="M3030 3541 l0 -250 338 -3 c185 -2 339 -2 340 -1 2 1 5 59 5 130 l2
128 -113 0 -112 0 0 123 0 122 -230 0 -230 0 0 -249z"/>
<path d="M1907 3033 c-9 -8 -9 -210 -1 -252 l7 -31 142 0 142 0 6 -67 c4 -38
7 -146 7 -240 l0 -173 520 0 520 0 0 115 0 115 120 0 120 0 0 126 0 125 110
-3 c84 -2 111 0 115 10 3 8 5 74 5 148 l0 134 -120 0 -120 0 0 -139 c0 -137 0
-140 -22 -143 -13 -2 -301 -2 -641 0 l-618 2 1 128 c1 70 1 133 1 140 -1 9
-37 12 -144 12 -79 0 -147 -3 -150 -7z"/>
</g>
</svg>
